<svg width="60" height="59" viewBox="0 0 60 59" fill="none" xmlns="http://www.w3.org/2000/svg">
<path d="M51.2128 49.8418C39.4998 61.1855 20.5015 61.1841 8.78898 49.8418C-2.92966 38.4964 -2.92966 20.103 8.78898 8.76142C20.5041 -2.58146 39.4998 -2.58146 51.2108 8.76247C62.929 20.1027 62.929 38.4961 51.2129 49.8416" fill="white"/>
<path d="M53.3544 14.6434C53.9162 16.4061 54.2244 18.2769 54.2244 20.2165C54.2244 26.4748 51.0464 31.9779 46.2131 35.4259C37.8086 41.4195 25.5586 41.4275 8.64465 46.5879C13.7494 52.4956 21.4206 56.2559 29.9997 56.2559C45.3751 56.2559 57.8387 44.1882 57.8387 29.3016C57.8387 23.8976 56.1866 18.8665 53.3544 14.6434" fill="#2151A1"/>
<path d="M46.6951 7.73491C42.0431 4.34961 36.2639 2.34668 30.0005 2.34668C14.6257 2.34668 2.16266 14.417 2.16266 29.3017C2.16266 35.2933 4.18144 40.8274 7.59581 45.302C26.319 40.0233 41.1029 25.8028 46.6951 7.73491" fill="#EB1933"/>
</svg>
